%TF.GenerationSoftware,KiCad,Pcbnew,10.0.3*%
%TF.CreationDate,2026-06-25T17:19:55+02:00*%
%TF.ProjectId,usdx_kicad,75736478-5f6b-4696-9361-642e6b696361,1.1*%
%TF.SameCoordinates,Original*%
%TF.FileFunction,Soldermask,Bot*%
%TF.FilePolarity,Negative*%
%FSLAX46Y46*%
G04 Gerber Fmt 4.6, Leading zero omitted, Abs format (unit mm)*
G04 Created by KiCad (PCBNEW 10.0.3) date 2026-06-25 17:19:55*
%MOMM*%
%LPD*%
G01*
G04 APERTURE LIST*
G04 Aperture macros list*
%AMRoundRect*
0 Rectangle with rounded corners*
0 $1 Rounding radius*
0 $2 $3 $4 $5 $6 $7 $8 $9 X,Y pos of 4 corners*
0 Add a 4 corners polygon primitive as box body*
4,1,4,$2,$3,$4,$5,$6,$7,$8,$9,$2,$3,0*
0 Add four circle primitives for the rounded corners*
1,1,$1+$1,$2,$3*
1,1,$1+$1,$4,$5*
1,1,$1+$1,$6,$7*
1,1,$1+$1,$8,$9*
0 Add four rect primitives between the rounded corners*
20,1,$1+$1,$2,$3,$4,$5,0*
20,1,$1+$1,$4,$5,$6,$7,0*
20,1,$1+$1,$6,$7,$8,$9,0*
20,1,$1+$1,$8,$9,$2,$3,0*%
G04 Aperture macros list end*
%ADD10C,1.700000*%
%ADD11C,2.800000*%
%ADD12C,1.600000*%
%ADD13RoundRect,0.250000X-0.750000X-0.750000X0.750000X-0.750000X0.750000X0.750000X-0.750000X0.750000X0*%
%ADD14C,2.000000*%
%ADD15R,1.700000X1.700000*%
%ADD16C,2.540000*%
%ADD17RoundRect,0.150000X-1.120000X-0.350000X1.120000X-0.350000X1.120000X0.350000X-1.120000X0.350000X0*%
%ADD18RoundRect,0.250000X-0.750000X0.750000X-0.750000X-0.750000X0.750000X-0.750000X0.750000X0.750000X0*%
%ADD19C,3.000000*%
%ADD20RoundRect,0.250000X0.750000X-0.600000X0.750000X0.600000X-0.750000X0.600000X-0.750000X-0.600000X0*%
%ADD21O,2.000000X1.700000*%
%ADD22R,1.200000X2.000000*%
%ADD23O,1.200000X2.000000*%
%ADD24C,4.000000*%
%ADD25RoundRect,0.250000X-0.600000X-0.750000X0.600000X-0.750000X0.600000X0.750000X-0.600000X0.750000X0*%
%ADD26O,1.700000X2.000000*%
%ADD27RoundRect,0.250000X0.550000X-0.550000X0.550000X0.550000X-0.550000X0.550000X-0.550000X-0.550000X0*%
%ADD28O,2.000000X1.200000*%
G04 APERTURE END LIST*
D10*
%TO.C,SI5351_board1*%
X91465495Y-101578738D03*
X94005495Y-101578738D03*
X96545495Y-101578738D03*
X99085495Y-101578738D03*
X101625495Y-101578738D03*
X104165495Y-101578738D03*
X106705495Y-101578738D03*
D11*
X112305495Y-101578738D03*
X86005495Y-101578738D03*
%TD*%
D12*
%TO.C,C21*%
X105205495Y-123878738D03*
X100205495Y-123878738D03*
%TD*%
D13*
%TO.C,C1*%
X106632323Y-61000000D03*
D14*
X111632323Y-61000000D03*
%TD*%
D12*
%TO.C,C2*%
X143355495Y-140428738D03*
X148355495Y-140428738D03*
%TD*%
D15*
%TO.C,J6*%
X223705495Y-131038738D03*
D10*
X223705495Y-128498738D03*
X223705495Y-125958738D03*
X223705495Y-123418738D03*
X223705495Y-120878738D03*
%TD*%
D16*
%TO.C,T1*%
X89705495Y-155878738D03*
X89705495Y-150798738D03*
X93705495Y-150878738D03*
X93705495Y-155878738D03*
%TD*%
D12*
%TO.C,R13*%
X136000000Y-143120000D03*
X136000000Y-135500000D03*
%TD*%
D16*
%TO.C,L5*%
X135000000Y-35000000D03*
X135000000Y-40080000D03*
%TD*%
D15*
%TO.C,J4*%
X79000000Y-70900000D03*
D10*
X79000000Y-73440000D03*
X79000000Y-75980000D03*
%TD*%
D15*
%TO.C,J7*%
X223500000Y-63880000D03*
D10*
X223500000Y-66420000D03*
X223500000Y-68960000D03*
X223500000Y-71500000D03*
X223500000Y-74040000D03*
%TD*%
D15*
%TO.C,J5*%
X79000000Y-47720000D03*
D10*
X79000000Y-50260000D03*
X79000000Y-52800000D03*
X79000000Y-55340000D03*
X79000000Y-57880000D03*
X79000000Y-60420000D03*
X79000000Y-62960000D03*
X79000000Y-65500000D03*
%TD*%
D13*
%TO.C,C4*%
X142632323Y-46000000D03*
D14*
X147632323Y-46000000D03*
%TD*%
D12*
%TO.C,C20*%
X143205495Y-120378738D03*
X138205495Y-120378738D03*
%TD*%
%TO.C,R9*%
X99500000Y-75500000D03*
X107120000Y-75500000D03*
%TD*%
%TO.C,C31*%
X131500000Y-139500000D03*
X126500000Y-139500000D03*
%TD*%
%TO.C,C16*%
X112205495Y-155878738D03*
X112205495Y-150878738D03*
%TD*%
%TO.C,C14*%
X125500000Y-98173243D03*
X130500000Y-98173243D03*
%TD*%
D17*
%TO.C,U4*%
X76267837Y-112468760D03*
X76267837Y-115468760D03*
%TD*%
D16*
%TO.C,L1*%
X183705495Y-145878738D03*
X188785495Y-145878738D03*
%TD*%
D12*
%TO.C,C18*%
X180300000Y-149378738D03*
X175300000Y-149378738D03*
%TD*%
%TO.C,C30*%
X131500000Y-135500000D03*
X126500000Y-135500000D03*
%TD*%
%TO.C,C23*%
X108000000Y-109500000D03*
X103000000Y-109500000D03*
%TD*%
%TO.C,R2*%
X143355495Y-144428738D03*
X150975495Y-144428738D03*
%TD*%
%TO.C,C24*%
X108000000Y-106000000D03*
X103000000Y-106000000D03*
%TD*%
D18*
%TO.C,C29*%
X210500000Y-36500000D03*
D14*
X210500000Y-41500000D03*
%TD*%
D12*
%TO.C,R10*%
X141732000Y-64620000D03*
X141732000Y-57000000D03*
%TD*%
D16*
%TO.C,L2*%
X143205495Y-116878738D03*
X138125495Y-116878738D03*
%TD*%
D12*
%TO.C,C27*%
X201000000Y-48500000D03*
X206000000Y-48500000D03*
%TD*%
%TO.C,C13*%
X125500000Y-102378738D03*
X130500000Y-102378738D03*
%TD*%
%TO.C,C22*%
X105205495Y-120378738D03*
X100205495Y-120378738D03*
%TD*%
D10*
%TO.C,PCM1*%
X167022000Y-140936000D03*
X169562000Y-140936000D03*
X172102000Y-140936000D03*
X174642000Y-140936000D03*
X177182000Y-140936000D03*
X179722000Y-140936000D03*
X179722000Y-115536000D03*
X177182000Y-115536000D03*
X174642000Y-115536000D03*
X172102000Y-115536000D03*
X169562000Y-115536000D03*
X167022000Y-115536000D03*
X158022000Y-125696000D03*
X158022000Y-128236000D03*
X158022000Y-130776000D03*
%TD*%
D15*
%TO.C,J3*%
X223500000Y-80690000D03*
D10*
X223500000Y-83230000D03*
X223500000Y-85770000D03*
X223500000Y-88310000D03*
%TD*%
D19*
%TO.C,MAX98357_board1*%
X211700000Y-86625000D03*
X211700000Y-100825000D03*
D10*
X197200000Y-101225000D03*
X197200000Y-98685000D03*
X197200000Y-96145000D03*
X197200000Y-93605000D03*
X197200000Y-91065000D03*
X197200000Y-88525000D03*
X197200000Y-85985000D03*
D14*
X209900000Y-91225000D03*
X209900000Y-95525000D03*
%TD*%
D20*
%TO.C,J11*%
X78500000Y-41500000D03*
D21*
X78500000Y-39000000D03*
%TD*%
D12*
%TO.C,C15*%
X125500000Y-106500000D03*
X130500000Y-106500000D03*
%TD*%
%TO.C,C17*%
X180205495Y-145878738D03*
X175205495Y-145878738D03*
%TD*%
%TO.C,R8*%
X100705495Y-149568738D03*
X100705495Y-157188738D03*
%TD*%
%TO.C,C26*%
X132000000Y-52500000D03*
X137000000Y-52500000D03*
%TD*%
D15*
%TO.C,J9*%
X223705495Y-139378738D03*
D10*
X223705495Y-141918738D03*
%TD*%
D12*
%TO.C,C8*%
X112705495Y-132378738D03*
X122705495Y-132378738D03*
%TD*%
D22*
%TO.C,U1*%
X125355495Y-93928738D03*
D23*
X127895495Y-93928738D03*
X130435495Y-93928738D03*
X132975495Y-93928738D03*
X135515495Y-93928738D03*
X138055495Y-93928738D03*
X140595495Y-93928738D03*
X143135495Y-93928738D03*
X145675495Y-93928738D03*
X148215495Y-93928738D03*
X150755495Y-93928738D03*
X153295495Y-93928738D03*
X155835495Y-93928738D03*
X158375495Y-93928738D03*
X160915495Y-93928738D03*
X163455495Y-93928738D03*
X165995495Y-93928738D03*
X168535495Y-93928738D03*
X171075495Y-93928738D03*
X173612775Y-93932418D03*
X176152775Y-93932418D03*
X178692775Y-93932418D03*
X178695495Y-68428738D03*
X176155495Y-68428738D03*
X173615495Y-68428738D03*
X171075495Y-68428738D03*
X168535495Y-68428738D03*
X165995495Y-68428738D03*
X163455495Y-68428738D03*
X160915495Y-68428738D03*
X158375495Y-68428738D03*
X155835495Y-68428738D03*
X153295495Y-68428738D03*
X150755495Y-68428738D03*
X148215495Y-68428738D03*
X145675495Y-68428738D03*
X143135495Y-68428738D03*
X140595495Y-68428738D03*
X138055495Y-68428738D03*
X135515495Y-68428738D03*
X132975495Y-68428738D03*
X130435495Y-68428738D03*
X127895495Y-68428738D03*
X125355495Y-68428738D03*
%TD*%
D24*
%TO.C,LM2596_board1*%
X123500000Y-52500000D03*
X93500000Y-35500000D03*
D16*
X128500000Y-53000000D03*
X128500000Y-35000000D03*
X88500000Y-35000000D03*
X88500000Y-53000000D03*
%TD*%
D25*
%TO.C,J12*%
X143000000Y-36000000D03*
D26*
X145500000Y-36000000D03*
%TD*%
D12*
%TO.C,C7*%
X112705495Y-138878738D03*
X122705495Y-138878738D03*
%TD*%
%TO.C,R14*%
X139500000Y-143120000D03*
X139500000Y-135500000D03*
%TD*%
D15*
%TO.C,J13*%
X79000000Y-81380000D03*
D10*
X79000000Y-83920000D03*
X79000000Y-86460000D03*
X79000000Y-89000000D03*
%TD*%
D12*
%TO.C,R12*%
X99500000Y-79500000D03*
X107120000Y-79500000D03*
%TD*%
%TO.C,C9*%
X108205495Y-155878738D03*
X108205495Y-150878738D03*
%TD*%
%TO.C,R1*%
X146045495Y-120928738D03*
X153665495Y-120928738D03*
%TD*%
%TO.C,C6*%
X112705495Y-145378738D03*
X122705495Y-145378738D03*
%TD*%
%TO.C,C11*%
X145328000Y-61722000D03*
X150328000Y-61722000D03*
%TD*%
%TO.C,R7*%
X97205495Y-157188738D03*
X97205495Y-149568738D03*
%TD*%
%TO.C,C12*%
X145328000Y-57912000D03*
X150328000Y-57912000D03*
%TD*%
%TO.C,C10*%
X104705495Y-155878738D03*
X104705495Y-150878738D03*
%TD*%
D16*
%TO.C,L6*%
X202000000Y-34000000D03*
X202000000Y-39080000D03*
%TD*%
D17*
%TO.C,U3*%
X76267837Y-148968760D03*
X76267837Y-151968760D03*
%TD*%
D27*
%TO.C,U2*%
X143275495Y-136428738D03*
D12*
X145815495Y-136428738D03*
X148355495Y-136428738D03*
X150895495Y-136428738D03*
X150895495Y-128808738D03*
X148355495Y-128808738D03*
X145815495Y-128808738D03*
X143275495Y-128808738D03*
%TD*%
%TO.C,C3*%
X145855495Y-125428738D03*
X150855495Y-125428738D03*
%TD*%
D16*
%TO.C,L4*%
X111000000Y-106000000D03*
X116080000Y-106000000D03*
%TD*%
D12*
%TO.C,C33*%
X131500000Y-131500000D03*
X126500000Y-131500000D03*
%TD*%
%TO.C,C25*%
X132000000Y-47000000D03*
X137000000Y-47000000D03*
%TD*%
D16*
%TO.C,L3*%
X104862000Y-116840000D03*
X99782000Y-116840000D03*
%TD*%
D12*
%TO.C,C19*%
X143205495Y-123878738D03*
X138205495Y-123878738D03*
%TD*%
D15*
%TO.C,J10*%
X224028000Y-39775000D03*
D10*
X224028000Y-37235000D03*
%TD*%
D12*
%TO.C,R11*%
X138176000Y-64620000D03*
X138176000Y-57000000D03*
%TD*%
%TO.C,C5*%
X112705495Y-125878738D03*
X122705495Y-125878738D03*
%TD*%
D24*
%TO.C,LM2596_board2*%
X189500000Y-52500000D03*
X159500000Y-35500000D03*
D16*
X194500000Y-53000000D03*
X194500000Y-35000000D03*
X154500000Y-35000000D03*
X154500000Y-53000000D03*
%TD*%
D12*
%TO.C,C28*%
X201000000Y-52550000D03*
X206000000Y-52550000D03*
%TD*%
D28*
%TO.C,FST3253*%
X91755495Y-127348738D03*
X91755495Y-129888738D03*
X91755495Y-132428738D03*
X91755495Y-134968738D03*
X91755495Y-137508738D03*
X91755495Y-140048738D03*
X91755495Y-142588738D03*
X91755495Y-145128738D03*
X104355495Y-145128738D03*
X104355495Y-142588738D03*
X104355495Y-140048738D03*
X104355495Y-137508738D03*
X104355495Y-134968738D03*
X104355495Y-132428738D03*
X104355495Y-129888738D03*
X104355495Y-127348738D03*
%TD*%
D15*
%TO.C,J8*%
X223500000Y-51000000D03*
D10*
X223500000Y-53540000D03*
%TD*%
D12*
%TO.C,C32*%
X131500000Y-127500000D03*
X126500000Y-127500000D03*
%TD*%
M02*
