M48
; DRILL file KiCad 10.0.3 date 2026-05-25T11:33:49
; FORMAT={-:-/ absolute / metric / decimal}
; #@! TF.CreationDate,2026-05-25T11:33:49+02:00
; #@! TF.GenerationSoftware,Kicad,Pcbnew,10.0.3
; #@! TF.FileFunction,Plated,1,2,PTH
FMAT,2
METRIC
; #@! TA.AperFunction,Plated,PTH,ViaDrill
T1C0.300
; #@! TA.AperFunction,Plated,PTH,ComponentDrill
T2C0.460
; #@! TA.AperFunction,Plated,PTH,ComponentDrill
T3C0.800
; #@! TA.AperFunction,Plated,PTH,ComponentDrill
T4C1.000
; #@! TA.AperFunction,Plated,PTH,ComponentDrill
T5C1.200
; #@! TA.AperFunction,Plated,PTH,ComponentDrill
T6C2.000
; #@! TA.AperFunction,Plated,PTH,ComponentDrill
T7C3.000
%
G90
G05
T1
X75.5Y-148.5
X75.5Y-152.5
X79.5Y-148.5
X79.5Y-152.5
X81.0Y-85.5
X81.0Y-87.5
X82.5Y-151.5
X83.0Y-148.5
X83.445Y-152.445
X83.5Y-111.5
X83.5Y-116.5
X85.5Y-153.5
X85.5Y-162.0
X86.5Y-149.5
X91.44Y-113.284
X91.44Y-114.808
X97.282Y-84.999
X97.5Y-162.5
X101.346Y-114.046
X103.124Y-114.046
X103.378Y-71.12
X103.378Y-75.438
X103.886Y-84.836
X114.0Y-162.0
X114.554Y-80.518
X120.65Y-60.96
X120.65Y-68.834
X121.92Y-60.706
X121.92Y-68.834
X122.5Y-153.5
X122.5Y-162.0
X134.0Y-153.0
X138.176Y-112.684
X138.176Y-114.3
X140.0Y-130.0
X140.0Y-162.0
X140.5Y-121.0
X142.5Y-111.0
X143.256Y-85.09
X145.204Y-83.142
X145.796Y-87.63
X147.5Y-107.0
X147.828Y-85.598
X148.336Y-90.17
X150.0Y-115.5
X150.622Y-87.884
X155.0Y-153.0
X155.5Y-162.5
X159.004Y-104.14
X170.18Y-104.14
X174.0Y-125.5
X175.0Y-153.0
X175.0Y-162.5
X180.34Y-83.058
X180.34Y-83.858
X180.34Y-84.658
X180.34Y-85.598
X183.896Y-70.612
X183.896Y-74.676
X184.15Y-100.33
X185.166Y-83.058
X185.166Y-83.858
X185.166Y-84.658
X185.166Y-85.598
X185.5Y-88.0
X188.0Y-91.0
X189.23Y-95.25
X191.0Y-92.5
X193.0Y-90.5
X194.5Y-85.5
X194.564Y-66.548
X197.612Y-64.008
X199.0Y-153.0
X199.0Y-162.5
X200.914Y-54.61
X200.914Y-57.658
X200.914Y-72.312
X202.438Y-74.676
X202.946Y-70.358
X204.724Y-72.39
X206.248Y-70.104
X206.502Y-66.802
X209.514Y-66.752
X209.804Y-70.358
X216.662Y-73.152
X218.0Y-79.5
X218.0Y-84.5
X220.218Y-76.708
T2
X81.01Y-146.12
X81.01Y-154.88
X81.535Y-109.235
X81.535Y-117.995
T3
X89.705Y-150.799
X89.705Y-155.879
X93.705Y-150.879
X93.705Y-155.879
X97.205Y-149.569
X97.205Y-157.189
X99.5Y-75.5
X99.5Y-79.5
X99.782Y-116.84
X100.205Y-120.379
X100.205Y-123.879
X100.705Y-149.569
X100.705Y-157.189
X103.0Y-106.0
X103.0Y-109.5
X104.705Y-150.879
X104.705Y-155.879
X104.862Y-116.84
X105.205Y-120.379
X105.205Y-123.879
X107.12Y-75.5
X107.12Y-79.5
X108.0Y-106.0
X108.0Y-109.5
X108.205Y-150.879
X108.205Y-155.879
X111.0Y-106.0
X112.205Y-150.879
X112.205Y-155.879
X112.705Y-125.879
X112.705Y-132.379
X112.705Y-138.879
X112.705Y-145.379
X116.08Y-106.0
X122.705Y-125.879
X122.705Y-132.379
X122.705Y-138.879
X122.705Y-145.379
X125.355Y-71.069
X125.355Y-93.929
X125.5Y-98.173
X125.5Y-102.379
X125.5Y-106.5
X127.895Y-71.069
X127.895Y-93.929
X129.355Y-127.429
X129.355Y-131.595
X129.355Y-135.762
X129.355Y-139.929
X130.435Y-71.069
X130.435Y-93.929
X130.5Y-98.173
X130.5Y-102.379
X130.5Y-106.5
X132.0Y-47.0
X132.0Y-52.5
X132.975Y-71.069
X132.975Y-93.929
X135.0Y-35.0
X135.0Y-40.08
X135.515Y-71.069
X135.515Y-93.929
X136.975Y-127.429
X136.975Y-131.595
X136.975Y-135.762
X136.975Y-139.929
X137.0Y-47.0
X137.0Y-52.5
X138.055Y-71.069
X138.055Y-93.929
X138.125Y-116.879
X138.176Y-57.912
X138.176Y-65.532
X138.205Y-120.379
X138.205Y-123.879
X140.595Y-71.069
X140.595Y-93.929
X141.732Y-57.912
X141.732Y-65.532
X143.135Y-71.069
X143.135Y-93.929
X143.205Y-116.879
X143.205Y-120.379
X143.205Y-123.879
X143.275Y-128.809
X143.275Y-136.429
X143.355Y-140.429
X143.355Y-144.429
X145.328Y-57.912
X145.328Y-61.722
X145.675Y-71.069
X145.675Y-93.929
X145.815Y-128.809
X145.815Y-136.429
X145.855Y-125.429
X146.045Y-120.929
X148.215Y-71.069
X148.215Y-93.929
X148.355Y-128.809
X148.355Y-136.429
X148.355Y-140.429
X150.328Y-57.912
X150.328Y-61.722
X150.755Y-71.069
X150.755Y-93.929
X150.855Y-125.429
X150.895Y-128.809
X150.895Y-136.429
X150.975Y-144.429
X153.295Y-71.069
X153.295Y-93.929
X153.665Y-120.929
X155.835Y-71.069
X155.835Y-93.929
X158.375Y-71.069
X158.375Y-93.929
X160.915Y-71.069
X160.915Y-93.929
X163.455Y-71.069
X163.455Y-93.929
X165.995Y-71.069
X165.995Y-93.929
X168.535Y-71.069
X168.535Y-93.929
X171.075Y-71.069
X171.075Y-93.929
X173.613Y-93.932
X173.615Y-71.069
X175.205Y-145.879
X175.3Y-149.379
X176.153Y-93.932
X176.155Y-71.069
X178.693Y-93.932
X178.695Y-71.069
X180.205Y-145.879
X180.3Y-149.379
X183.705Y-145.879
X188.785Y-145.879
X201.0Y-48.5
X201.0Y-52.55
X202.0Y-34.0
X202.0Y-39.08
X206.0Y-48.5
X206.0Y-52.55
T4
X78.5Y-39.0
X78.5Y-41.5
X79.0Y-47.72
X79.0Y-50.26
X79.0Y-52.8
X79.0Y-55.34
X79.0Y-57.88
X79.0Y-60.42
X79.0Y-62.96
X79.0Y-65.5
X79.0Y-70.9
X79.0Y-73.44
X79.0Y-75.98
X79.0Y-81.38
X79.0Y-83.92
X79.0Y-86.46
X79.0Y-89.0
X91.465Y-101.579
X91.755Y-127.349
X91.755Y-129.889
X91.755Y-132.429
X91.755Y-134.969
X91.755Y-137.509
X91.755Y-140.049
X91.755Y-142.589
X91.755Y-145.129
X94.005Y-101.579
X96.545Y-101.579
X99.085Y-101.579
X101.625Y-101.579
X104.165Y-101.579
X104.355Y-127.349
X104.355Y-129.889
X104.355Y-132.429
X104.355Y-134.969
X104.355Y-137.509
X104.355Y-140.049
X104.355Y-142.589
X104.355Y-145.129
X106.632Y-61.0
X106.705Y-101.579
X111.632Y-61.0
X142.632Y-46.0
X143.0Y-36.0
X145.5Y-36.0
X147.632Y-46.0
X158.022Y-125.696
X158.022Y-128.236
X158.022Y-130.776
X167.022Y-115.536
X167.022Y-140.936
X169.562Y-115.536
X169.562Y-140.936
X172.102Y-115.536
X172.102Y-140.936
X174.642Y-115.536
X174.642Y-140.936
X177.182Y-115.536
X177.182Y-140.936
X179.722Y-115.536
X179.722Y-140.936
X197.2Y-85.985
X197.2Y-88.525
X197.2Y-91.065
X197.2Y-93.605
X197.2Y-96.145
X197.2Y-98.685
X197.2Y-101.225
X209.9Y-91.225
X209.9Y-95.525
X210.5Y-36.5
X210.5Y-41.5
X223.5Y-51.0
X223.5Y-53.54
X223.5Y-63.88
X223.5Y-66.42
X223.5Y-68.96
X223.5Y-71.5
X223.5Y-74.04
X223.5Y-80.69
X223.5Y-83.23
X223.5Y-85.77
X223.5Y-88.31
X223.705Y-120.879
X223.705Y-123.419
X223.705Y-125.959
X223.705Y-128.499
X223.705Y-131.039
X223.705Y-139.379
X223.705Y-141.919
X224.028Y-37.235
X224.028Y-39.775
T5
X88.5Y-35.0
X88.5Y-53.0
X128.5Y-35.0
X128.5Y-53.0
X154.5Y-35.0
X154.5Y-53.0
X194.5Y-35.0
X194.5Y-53.0
T6
X211.7Y-86.625
X211.7Y-100.825
T7
X93.5Y-35.5
X123.5Y-52.5
X159.5Y-35.5
X189.5Y-52.5
M30
